<svg width="28" height="28" viewBox="0 0 28 28" fill="none" xmlns="http://www.w3.org/2000/svg">
<path d="M14 10.1186L14.9821 12.7262L15.0619 12.9381L15.2738 13.0179L17.8814 14L15.2738 14.9821L15.0619 15.0619L14.9821 15.2738L14 17.8814L13.0179 15.2738L12.9381 15.0619L12.7262 14.9821L10.1186 14L12.7262 13.0179L12.9381 12.9381L13.0179 12.7262L14 10.1186ZM14.4682 2.82444L14 1.576L13.5318 2.82444L10.6116 10.6116L2.82444 13.5318L1.576 14L2.82444 14.4682L10.6116 17.3884L13.5318 25.1756L14 26.424L14.4682 25.1756L17.3884 17.3884L25.1756 14.4682L26.424 14L25.1756 13.5318L17.3884 10.6116L14.4682 2.82444Z" fill="white" stroke="#393949"/>
</svg>
